<?xml version="1.0" standalone="no"?>
<!DOCTYPE svg PUBLIC "-//W3C//DTD SVG 20010904//EN"
 "http://www.w3.org/TR/2001/REC-SVG-20010904/DTD/svg10.dtd">
<svg version="1.0" xmlns="http://www.w3.org/2000/svg"
 width="2317.000000pt" height="2317.000000pt" viewBox="0 0 2317.000000 2317.000000"
 preserveAspectRatio="xMidYMid meet">
<metadata>
Created by potrace 1.14, written by Peter Selinger 2001-2017
</metadata>
<g transform="translate(0.000000,2317.000000) scale(0.100000,-0.100000)"
fill="#000000" stroke="none">
<path d="M4029 20306 c-2 -2 -26 -7 -54 -10 -61 -7 -97 -14 -150 -28 -22 -5
-47 -12 -55 -13 -75 -16 -348 -149 -380 -184 -3 -4 -23 -19 -45 -35 -22 -16
-51 -40 -65 -53 -14 -12 -45 -41 -69 -63 -24 -22 -40 -40 -36 -40 3 0 -7 -11
-23 -25 -16 -13 -57 -66 -91 -117 -34 -51 -65 -97 -69 -103 -40 -55 -137 -319
-147 -400 -2 -11 -6 -45 -11 -75 -10 -71 -11 -266 -1 -350 9 -83 39 -206 71
-293 29 -81 118 -248 157 -298 16 -20 29 -39 29 -42 0 -8 83 -100 145 -160 64
-63 216 -177 227 -171 4 3 8 1 8 -4 0 -11 133 -77 220 -109 75 -28 171 -54
217 -59 17 -3 53 -8 80 -13 27 -6 473 -10 1012 -11 531 0 966 -2 968 -3 1 -2
4 -2341 6 -5198 2 -4938 3 -5197 20 -5264 10 -38 20 -81 23 -94 8 -38 61 -188
80 -224 9 -17 21 -40 26 -51 22 -44 49 -87 78 -128 16 -24 38 -54 48 -68 9
-14 32 -40 50 -57 18 -18 30 -33 27 -33 -6 0 3 -8 90 -88 41 -38 156 -126 165
-127 3 0 24 -13 47 -28 103 -65 260 -126 413 -159 106 -23 337 -32 430 -17 30
5 70 11 89 14 89 14 232 62 336 113 80 39 225 132 225 144 0 4 5 8 11 8 7 0
20 10 30 22 11 11 19 19 19 15 0 -6 86 80 135 134 95 106 189 267 245 420 16
43 27 79 24 79 -4 0 -2 6 3 13 10 11 18 44 30 122 3 17 9 50 13 75 11 55 7
11860 -3 11910 -23 108 -53 214 -78 278 -32 81 -88 194 -99 202 -4 3 -15 21
-24 40 -9 19 -31 52 -49 72 -17 20 -48 56 -67 79 -38 47 -126 131 -192 184
-61 49 -305 185 -331 185 -3 0 -18 5 -34 12 -15 6 -33 12 -39 13 -6 2 -36 10
-65 18 -30 9 -74 19 -99 22 -25 4 -70 11 -100 15 -52 8 -3413 13 -3421 6z"/>
<path d="M18109 18876 c-2 -2 -29 -6 -59 -10 -30 -3 -64 -8 -75 -10 -321 -70
-548 -202 -770 -448 -27 -30 -108 -145 -129 -183 -9 -16 -25 -45 -36 -63 -11
-18 -20 -34 -20 -37 0 -3 -6 -18 -14 -34 -18 -34 -49 -125 -71 -206 -17 -64
-20 -78 -34 -169 -9 -66 -8 -299 3 -361 4 -22 9 -47 10 -55 6 -30 18 -76 34
-130 9 -30 17 -57 17 -60 19 -73 153 -319 201 -367 8 -8 14 -18 14 -21 0 -8
128 -140 176 -183 71 -62 264 -187 299 -193 6 -1 15 -5 22 -9 50 -31 218 -80
348 -102 80 -13 321 -13 400 0 271 45 531 175 721 362 69 68 174 195 174 211
0 6 4 12 8 14 13 5 96 157 121 223 13 33 28 74 35 90 6 17 12 35 12 40 1 6 3
12 4 15 3 8 8 30 26 115 22 105 26 347 7 446 -25 133 -26 139 -57 229 -22 68
-67 169 -99 225 -27 46 -61 100 -67 105 -4 3 -11 12 -16 21 -28 50 -146 176
-230 245 -51 43 -218 154 -232 154 -4 0 -24 9 -45 20 -84 45 -262 100 -377
115 -50 7 -296 16 -301 11z"/>
<path d="M21718 18844 c-2 -1 -30 -5 -63 -8 -242 -27 -541 -167 -722 -337 -69
-66 -153 -158 -153 -169 0 -5 -4 -10 -10 -10 -5 0 -10 -7 -10 -15 0 -7 -6 -18
-14 -22 -16 -10 -106 -162 -106 -180 0 -7 -4 -13 -10 -13 -5 0 -10 -7 -10 -16
0 -9 -6 -28 -14 -42 -34 -64 -79 -223 -93 -327 -9 -72 -10 -290 -1 -360 11
-82 39 -195 70 -279 27 -75 105 -235 119 -246 3 -3 12 -15 18 -28 14 -27 18
-32 94 -123 68 -82 92 -106 169 -170 147 -122 343 -223 517 -265 9 -2 35 -8
58 -14 128 -31 388 -33 532 -5 118 23 319 95 381 136 8 5 23 12 33 15 9 4 17
9 17 13 0 3 12 12 28 18 15 7 40 24 56 38 16 14 32 25 35 25 3 0 21 14 39 31
17 16 32 28 32 26 0 -4 111 107 140 140 82 94 201 295 230 388 7 22 15 45 19
50 3 6 6 15 8 20 1 6 9 35 17 65 15 56 21 82 33 160 9 60 9 290 0 365 -9 65
-41 198 -58 242 -7 16 -15 37 -19 48 -36 102 -148 293 -215 370 -122 138 -210
213 -353 299 -129 78 -339 152 -487 172 -47 6 -302 13 -307 8z"/>
<path d="M10388 18805 c-2 -2 -28 -6 -58 -10 -30 -4 -80 -13 -110 -21 -30 -9
-64 -17 -74 -19 -56 -12 -280 -107 -296 -125 -3 -3 -23 -17 -45 -30 -22 -13
-42 -27 -45 -30 -3 -4 -12 -11 -21 -16 -71 -40 -177 -146 -309 -311 -20 -25
-110 -188 -110 -199 0 -7 -4 -14 -8 -16 -15 -6 -81 -207 -97 -295 -2 -16 -8
-46 -12 -68 -9 -52 -9 -304 1 -375 16 -115 59 -258 114 -375 20 -44 40 -81 44
-83 5 -2 8 -8 8 -13 0 -29 127 -195 216 -283 75 -75 204 -176 224 -176 6 0 10
-4 10 -10 0 -5 6 -10 14 -10 8 0 21 -6 28 -13 18 -17 191 -95 208 -94 3 0 15
-5 28 -12 13 -7 31 -14 40 -16 9 -2 46 -10 82 -19 36 -8 79 -18 95 -21 60 -13
320 -13 403 1 327 52 612 213 823 464 58 68 159 225 159 245 0 8 3 15 8 15 4
0 15 21 25 48 22 56 34 84 47 115 15 34 48 175 57 242 10 75 10 302 -1 375
-48 340 -239 661 -523 876 -39 30 -76 54 -81 54 -5 0 -15 6 -21 14 -10 12 -93
57 -111 61 -3 0 -18 8 -35 17 -31 16 -169 65 -201 71 -11 2 -26 7 -34 10 -42
16 -170 30 -297 32 -78 2 -143 2 -145 0z"/>
<path d="M1170 18250 c-25 -4 -63 -10 -85 -13 -22 -3 -61 -13 -87 -21 -27 -8
-48 -12 -48 -9 0 3 -6 1 -12 -4 -7 -6 -26 -13 -42 -17 -33 -8 -237 -103 -246
-114 -3 -4 -16 -13 -30 -20 -92 -47 -262 -204 -352 -325 -49 -67 -132 -201
-133 -217 -1 -3 -6 -15 -13 -27 -13 -23 -71 -178 -72 -191 0 -4 -5 -24 -10
-44 -6 -20 -13 -56 -16 -80 -3 -24 -10 -63 -15 -88 -10 -54 -7 -8294 4 -8330
4 -14 10 -41 13 -60 21 -117 64 -241 122 -355 25 -49 50 -94 54 -100 4 -5 34
-46 67 -90 65 -89 141 -169 216 -230 28 -22 52 -42 55 -45 9 -9 65 -46 80 -53
8 -4 29 -16 45 -27 113 -72 331 -148 480 -166 119 -15 332 -9 440 11 141 27
380 121 436 171 8 8 20 14 25 14 5 0 29 16 54 35 177 135 283 253 387 430 72
121 139 316 160 466 10 68 11 8298 1 8359 -21 128 -40 199 -84 310 -20 51 -49
115 -65 142 -16 27 -29 51 -29 54 0 6 -55 87 -75 111 -5 6 -23 28 -40 49 -56
69 -221 224 -239 224 -3 0 -14 7 -23 16 -30 27 -124 84 -139 84 -8 0 -14 4
-14 9 0 5 -8 11 -17 14 -10 3 -51 19 -91 36 -75 31 -224 75 -297 86 -62 10
-315 13 -365 5z"/>
<path d="M9190 9817 c0 -3407 4 -5767 9 -5787 5 -19 12 -53 14 -75 23 -189
141 -442 285 -613 73 -87 185 -193 216 -205 9 -4 16 -11 16 -17 0 -5 6 -10 14
-10 7 0 19 -6 25 -14 16 -19 167 -106 185 -106 8 0 17 -4 20 -9 3 -4 27 -16
53 -25 26 -10 57 -21 68 -26 31 -14 142 -40 230 -55 117 -19 347 -12 460 14
50 12 100 23 112 26 30 7 186 66 198 76 6 4 39 22 75 41 76 40 232 153 223
162 -4 3 -1 6 5 6 9 0 109 96 137 132 6 7 27 34 48 60 20 25 37 51 37 57 0 6
4 11 8 11 5 0 19 19 31 43 30 53 85 160 86 167 2 5 6 17 28 75 7 17 12 32 13
35 0 3 6 25 13 50 7 25 21 90 31 145 18 96 19 340 19 5848 l1 5747 -1330 0
-1330 0 0 -5753z"/>
<path d="M13500 15563 c-90 -11 -179 -26 -205 -33 -266 -75 -442 -177 -620
-356 -100 -101 -155 -168 -191 -234 -10 -19 -22 -37 -26 -40 -5 -4 -64 -127
-88 -185 -23 -55 -60 -185 -66 -230 -2 -16 -6 -41 -10 -55 -12 -49 -11 -314 3
-397 13 -80 49 -228 61 -248 4 -5 7 -14 8 -20 3 -20 73 -164 100 -206 16 -24
29 -46 29 -49 1 -19 159 -206 214 -255 19 -16 46 -40 59 -52 14 -13 28 -23 31
-23 3 0 17 -10 31 -23 39 -36 219 -134 305 -167 11 -4 31 -12 45 -18 31 -12
182 -50 230 -57 95 -16 328 -12 430 5 192 34 391 116 546 226 74 53 194 161
229 206 6 7 29 36 51 63 120 146 231 390 260 573 3 19 8 44 11 56 11 48 10
306 -3 389 -20 138 -73 300 -133 411 -52 96 -84 151 -91 156 -3 3 -19 23 -35
45 -44 59 -183 200 -235 237 -25 18 -51 38 -57 44 -7 7 -39 27 -70 45 -32 18
-66 39 -75 47 -10 8 -18 12 -18 9 0 -3 -26 7 -57 22 -32 16 -76 34 -98 41 -22
7 -44 15 -50 19 -5 3 -19 7 -29 8 -11 2 -45 10 -75 18 -31 7 -78 17 -106 20
-56 8 -266 13 -305 8z"/>
<path d="M16780 15559 c-25 -4 -63 -10 -85 -14 -180 -29 -400 -127 -570 -255
-33 -25 -225 -214 -225 -222 0 -8 -22 -36 -47 -63 -7 -8 -13 -17 -13 -21 0 -4
-6 -15 -14 -23 -43 -48 -133 -250 -170 -381 -56 -202 -57 -465 -1 -680 44
-173 145 -379 234 -479 11 -13 21 -27 21 -30 0 -10 148 -158 187 -188 21 -15
40 -30 43 -34 28 -33 288 -176 331 -182 8 -2 19 -5 24 -9 20 -12 144 -46 200
-54 22 -3 60 -10 83 -14 58 -10 255 -9 329 2 32 4 69 10 83 12 39 6 139 34
203 56 227 80 458 251 602 445 17 22 33 42 38 43 4 2 7 10 7 17 0 7 3 15 8 17
19 8 108 185 144 288 32 88 46 143 54 202 3 24 9 62 14 85 8 46 6 301 -3 343
-3 14 -8 43 -12 65 -32 215 -169 484 -335 658 -30 32 -56 63 -58 68 -2 5 -10
9 -18 9 -8 0 -14 4 -14 9 0 11 -134 113 -193 148 -23 13 -49 28 -57 33 -80 50
-271 115 -410 141 -75 14 -314 19 -380 8z"/>
<path d="M19688 15565 c-2 -2 -28 -6 -59 -9 -114 -13 -257 -55 -359 -104 -30
-15 -57 -27 -60 -27 -10 0 -137 -81 -200 -127 -109 -80 -277 -264 -332 -363
-36 -66 -106 -212 -121 -255 -18 -49 -52 -189 -63 -260 -10 -60 -10 -290 -1
-365 7 -57 41 -203 54 -235 3 -8 7 -17 8 -20 21 -78 128 -288 174 -342 6 -7
28 -34 48 -60 19 -27 40 -48 44 -48 5 0 9 -4 9 -10 0 -5 21 -29 47 -52 25 -24
58 -55 73 -70 65 -64 272 -188 380 -227 19 -7 44 -17 55 -22 26 -11 142 -40
178 -45 15 -2 39 -6 55 -10 57 -13 318 -12 399 2 147 26 384 106 404 136 3 5
8 9 10 8 9 -4 166 92 179 110 3 4 23 19 45 33 22 15 36 27 31 27 -5 0 4 10 20
22 48 37 125 124 187 210 53 75 143 241 161 298 5 14 9 27 10 30 5 11 30 96
32 105 1 6 3 12 4 15 4 12 10 40 23 120 14 81 16 324 4 395 -3 17 -8 46 -12
65 -9 55 -24 109 -52 190 -29 83 -101 233 -114 238 -5 2 -9 9 -9 16 0 6 -7 21
-15 31 -8 11 -35 47 -60 79 -63 83 -225 249 -225 231 0 -3 -11 5 -24 19 -13
15 -26 26 -29 26 -3 0 -32 17 -64 39 -100 66 -240 129 -363 162 -25 7 -47 13
-50 14 -3 1 -27 5 -55 10 -27 4 -59 10 -70 12 -21 5 -293 12 -297 8z"/>
<path d="M4170 13920 c-115 -15 -244 -45 -286 -68 -11 -6 -23 -10 -27 -10 -16
0 -123 -46 -159 -69 -21 -13 -40 -23 -43 -23 -10 0 -100 -63 -103 -72 -2 -4
-10 -8 -17 -8 -7 0 -15 -3 -17 -8 -1 -4 -23 -23 -48 -42 -113 -88 -251 -259
-327 -406 -42 -80 -106 -244 -96 -244 3 0 0 -7 -7 -15 -7 -8 -10 -15 -7 -15 3
0 1 -15 -4 -32 -6 -18 -12 -44 -14 -58 -2 -14 -8 -54 -13 -90 -10 -67 -8 -296
2 -340 3 -14 8 -43 11 -65 10 -83 68 -255 122 -358 93 -179 218 -331 368 -445
33 -26 62 -50 63 -54 2 -4 8 -8 13 -8 5 0 28 -12 52 -27 92 -60 235 -119 367
-154 111 -28 163 -33 330 -33 144 1 229 12 370 49 84 22 247 97 341 157 159
102 334 283 422 438 59 103 130 273 140 336 3 16 8 36 11 44 29 73 41 366 21
505 -10 69 -73 285 -90 312 -8 12 -15 27 -15 32 0 17 -110 204 -136 232 -13
14 -24 29 -24 33 0 18 -155 172 -230 229 -30 23 -57 45 -60 48 -3 4 -21 16
-40 26 -19 11 -59 34 -87 51 -29 17 -53 29 -53 26 0 -4 -7 -1 -15 6 -14 12
-154 68 -190 75 -11 3 -47 11 -80 19 -33 8 -78 18 -100 21 -59 10 -281 13
-345 5z"/>
<path d="M15415 11589 c-27 -3 -67 -9 -88 -13 -45 -7 -210 -53 -235 -65 -152
-72 -226 -112 -292 -160 -151 -108 -295 -263 -364 -391 -10 -19 -21 -37 -25
-40 -14 -11 -73 -147 -101 -230 -28 -85 -34 -106 -46 -179 -3 -18 -8 -43 -11
-55 -12 -49 -9 -320 4 -389 19 -101 20 -105 38 -172 32 -120 169 -395 196
-395 5 0 9 -6 9 -13 0 -7 16 -30 35 -51 19 -21 35 -40 35 -42 0 -7 87 -91 145
-140 114 -97 240 -172 370 -221 22 -8 49 -19 60 -24 11 -4 49 -16 85 -25 125
-31 157 -35 310 -39 74 -2 162 1 195 6 33 5 74 11 90 14 39 6 162 40 200 56
17 7 35 13 41 14 22 5 131 61 194 99 135 82 256 190 352 313 29 37 56 70 60
71 5 2 8 8 8 13 0 5 12 28 27 52 80 126 153 326 178 487 11 70 14 314 4 365
-5 26 -11 61 -13 78 -9 74 -66 252 -92 293 -9 13 -14 24 -11 24 9 0 -71 138
-121 210 -200 284 -527 488 -867 542 -83 13 -300 17 -370 7z"/>
<path d="M18305 11589 c-27 -4 -72 -10 -100 -14 -27 -4 -54 -10 -60 -13 -5 -4
-19 -8 -30 -9 -43 -7 -194 -67 -275 -109 -89 -48 -240 -151 -240 -166 0 -4 -4
-8 -10 -8 -21 0 -164 -160 -230 -258 -39 -56 -70 -105 -70 -108 0 -4 -13 -33
-30 -65 -16 -32 -43 -98 -59 -146 -28 -84 -35 -113 -46 -175 -3 -16 -8 -40
-11 -55 -10 -44 -12 -308 -4 -356 5 -23 11 -60 14 -81 9 -58 16 -83 43 -166
26 -82 93 -233 105 -238 5 -2 8 -8 8 -14 0 -11 75 -124 97 -146 7 -7 13 -17
13 -21 0 -11 162 -173 205 -205 22 -17 42 -33 45 -36 13 -16 126 -84 198 -120
106 -52 263 -105 352 -117 19 -3 55 -9 80 -13 65 -12 263 -9 355 6 157 25 339
85 440 146 17 9 46 26 66 37 21 11 43 26 50 33 8 7 33 26 55 41 88 59 253 241
321 352 39 64 63 109 63 118 0 6 6 18 14 26 24 28 99 270 113 366 11 76 9 340
-3 391 -7 30 -12 55 -12 57 1 32 -49 206 -63 222 -5 5 -9 15 -9 22 0 17 -62
147 -72 151 -5 2 -8 10 -8 18 0 8 -4 14 -10 14 -5 0 -10 6 -10 13 0 14 -59
100 -72 105 -5 2 -8 8 -8 13 0 18 -132 155 -210 219 -37 30 -97 71 -185 128
-11 6 -31 17 -45 23 -13 5 -46 21 -73 35 -27 13 -56 24 -66 24 -9 0 -21 4 -26
9 -12 11 -95 34 -200 56 -87 18 -317 27 -400 14z"/>
<path d="M13885 8989 c-33 -5 -84 -14 -112 -20 -29 -6 -56 -11 -60 -11 -21 -2
-200 -71 -255 -99 -92 -46 -194 -114 -267 -178 -66 -57 -142 -131 -135 -131 2
0 -9 -14 -26 -32 -86 -90 -229 -357 -255 -475 -3 -13 -8 -33 -11 -45 -35 -134
-51 -365 -34 -488 14 -91 21 -134 26 -152 3 -9 7 -26 9 -38 13 -70 104 -278
157 -361 62 -97 127 -178 191 -238 21 -20 52 -51 69 -68 17 -18 35 -33 40 -33
5 0 16 -7 25 -15 29 -30 180 -126 203 -130 3 -1 23 -10 45 -22 44 -22 202 -78
250 -88 123 -25 215 -33 340 -30 77 2 152 6 168 9 15 3 37 8 50 10 51 11 72
16 126 32 31 10 58 18 61 20 3 1 16 5 28 9 13 4 60 25 103 46 44 21 82 38 86
38 3 0 9 3 12 8 3 4 40 31 81 58 188 126 353 320 449 526 94 204 130 373 125
599 -1 80 -5 157 -8 173 -3 15 -8 37 -10 50 -2 12 -9 42 -16 67 -7 25 -13 50
-14 55 -28 129 -131 327 -249 478 -97 123 -275 266 -434 345 -73 37 -229 95
-290 107 -39 8 -68 14 -100 20 -51 10 -307 13 -368 4z"/>
<path d="M16775 8989 c-22 -4 -58 -10 -80 -13 -107 -17 -224 -57 -350 -120
-94 -47 -206 -119 -213 -138 -2 -4 -8 -8 -13 -8 -15 0 -99 -80 -189 -179 -9
-9 -29 -35 -45 -56 -17 -22 -36 -46 -42 -53 -7 -7 -13 -19 -13 -27 0 -7 -7
-15 -15 -19 -8 -3 -15 -15 -15 -26 0 -11 -4 -20 -8 -20 -6 0 -75 -132 -78
-150 0 -3 -6 -18 -13 -35 -67 -169 -91 -312 -86 -515 2 -74 6 -146 10 -160 4
-14 8 -38 10 -55 1 -16 4 -30 5 -30 1 0 3 -11 6 -25 17 -99 99 -295 171 -407
115 -180 296 -356 450 -439 132 -71 228 -112 313 -134 19 -5 53 -13 75 -19 74
-19 149 -26 285 -26 120 1 166 4 261 20 39 7 189 52 229 68 19 9 38 16 42 16
12 2 119 62 150 83 14 10 29 18 33 18 6 0 104 72 142 104 64 54 151 148 206
221 20 28 40 55 45 60 4 6 11 17 15 25 4 8 13 24 20 35 17 27 51 89 52 95 1 3
11 27 23 53 12 27 22 54 22 61 0 7 4 16 9 22 10 10 56 184 66 249 19 130 8
451 -18 492 -4 5 -9 24 -12 42 -26 151 -160 404 -290 550 -200 225 -448 366
-753 428 -84 17 -341 25 -407 12z"/>
<path d="M19689 8996 c-2 -2 -27 -7 -56 -10 -28 -3 -73 -11 -100 -17 -26 -6
-55 -12 -64 -14 -111 -23 -413 -169 -427 -206 -2 -5 -9 -9 -15 -9 -7 0 -31
-18 -54 -39 -23 -22 -44 -37 -47 -34 -3 4 -6 -2 -6 -12 0 -10 -3 -16 -6 -13
-13 14 -197 -203 -234 -277 -8 -16 -17 -32 -20 -35 -12 -12 -69 -130 -93 -195
-28 -73 -61 -205 -73 -290 -10 -63 -10 -272 -2 -345 23 -191 103 -411 207
-566 17 -25 31 -50 31 -55 0 -6 5 -7 10 -4 6 3 10 0 10 -7 0 -20 136 -168 204
-223 21 -16 44 -35 51 -42 74 -70 347 -204 463 -228 15 -3 32 -7 37 -9 6 -1
28 -6 50 -11 22 -4 49 -10 60 -12 40 -9 313 -11 366 -2 320 53 556 169 763
375 190 190 334 460 372 698 3 21 8 48 11 60 9 39 11 310 3 361 -17 101 -21
122 -42 195 -22 80 -93 255 -113 280 -7 8 -21 31 -30 50 -10 19 -21 37 -25 40
-4 3 -22 28 -41 55 -128 188 -361 367 -591 455 -56 21 -184 59 -224 66 -13 2
-36 7 -51 10 -34 7 -318 15 -324 10z"/>
<path d="M15410 5915 c-47 -7 -101 -17 -120 -23 -19 -6 -46 -13 -60 -16 -14
-2 -42 -12 -62 -20 -21 -9 -38 -14 -38 -12 0 9 -178 -83 -248 -127 -62 -41
-177 -132 -221 -176 -67 -68 -211 -259 -211 -280 0 -5 -7 -14 -15 -21 -8 -6
-14 -15 -13 -18 1 -4 -13 -38 -31 -77 -18 -38 -34 -74 -35 -80 -1 -5 -4 -14
-7 -20 -5 -8 -19 -55 -23 -75 -1 -3 -5 -11 -9 -17 -5 -7 -6 -13 -3 -13 2 0 0
-15 -5 -32 -6 -18 -12 -46 -14 -63 -3 -16 -8 -41 -11 -55 -13 -53 -11 -331 3
-403 8 -40 16 -83 19 -97 5 -30 40 -143 57 -185 37 -92 136 -267 182 -321 6
-7 28 -34 50 -60 22 -27 57 -64 79 -84 21 -19 50 -47 64 -62 14 -16 31 -28 39
-28 7 0 13 -3 13 -8 0 -6 98 -73 175 -119 87 -53 289 -124 392 -139 17 -2 52
-8 78 -13 51 -10 334 -9 350 1 6 3 33 9 60 12 54 7 69 12 189 52 73 24 175 69
221 97 176 107 330 246 420 378 17 24 33 46 36 49 27 22 149 290 165 361 9 39
12 54 14 54 2 0 4 10 14 60 15 71 19 128 20 260 0 153 -5 202 -33 313 -6 23
-16 60 -21 83 -6 23 -17 54 -26 70 -8 16 -13 29 -10 29 5 0 -74 163 -83 170
-3 3 -14 21 -24 40 -18 36 -30 52 -108 148 -54 67 -146 157 -209 205 -48 36
-200 133 -213 135 -4 1 -21 9 -37 17 -44 23 -190 75 -190 69 0 -4 -7 -1 -15 6
-8 7 -15 10 -15 6 0 -3 -11 -1 -25 4 -14 5 -46 12 -72 16 -27 3 -52 9 -57 11
-18 11 -294 9 -376 -2z"/>
</g>
</svg>
